<svg xmlns="http://www.w3.org/2000/svg" xmlns:xlink="http://www.w3.org/1999/xlink" width="168" height="252" viewBox="0 0 168 252"><defs><style>.cls-1 {fill: #fff;filter: url(#filter);}.cls-1, .cls-2 {fill-rule: evenodd;}.cls-2 {fill: #c0151d;}</style><filter id="filter" x="615" y="2755" width="168" height="252" filterUnits="userSpaceOnUse"><feOffset result="offset" dx="4.5" dy="7.794" in="SourceAlpha"/><feGaussianBlur result="blur" stdDeviation="4.243"/><feFlood result="flood" flood-opacity="0.5"/><feComposite result="composite" operator="in" in2="blur"/><feBlend result="blend" in="SourceGraphic"/></filter></defs><path class="cls-1" d="M760,2830.77a66.5,66.5,0,1,0-124.03,33.38H635.9L693.492,2981l57.628-116.85h-0.082A66.432,66.432,0,0,0,760,2830.77m-66.492,53.37c-18.362,0-53.25-34.94-53.25-53.38s34.888-53.39,53.25-53.39c18.378,0,53.25,34.96,53.25,53.39s-34.872,53.38-53.25,53.38" transform="translate(-615 -2755)"/><path class="cls-2" d="M655,2808v41.49h11.068v-7.08l6.541-6.58,8.552,14.17h14.087l-2.515-5.57H706.82v-10.62l-4.528,1.01,10.565-15.69v29.35H736v-10.62H725.938v-28.85H707.826l-22.64,26.31-6.037-9.1L692.733,2808H679.652l-13.584,17.2V2808H655Z" transform="translate(-615 -2755)"/></svg>